# xmcd
#
# Track frame offsets:
#   150
#   6200
#   14604
#   17874
#   27024
#   37824
#   40732
#   43208
#   46067
#   49637
#   53924
#   59298
#   61906
#   66730
#   70202
#   73117
#   77446
#   89565
#   94333
#   98732
#   102030
#   106087
#   115390
#
# Disc length: 1600 seconds
#
# Revision: 0
# Processed by: cddbd v1.5.2PL0 Copyright (c) Steve Scherf et al.
# Submitted via: uFREEDB ActiveX Control 1.5
#
DISCID=32063e17
DTITLE=CELLEP - CELLEP
DYEAR=1900
DGENRE=CELLEP
TTITLE0=aaa 01
TTITLE1=aaa 02
TTITLE2=aaa 03
TTITLE3=aaa 04
TTITLE4=aaa 05
TTITLE5=aaa 06
TTITLE6=aaa 07
TTITLE7=aaa 08
TTITLE8=aaa 09
TTITLE9=aaa 10
TTITLE10=aaa 11
TTITLE11=aaa 12
TTITLE12=aaa 13
TTITLE13=aaa 14
TTITLE14=aaa 15
TTITLE15=aaa 16
TTITLE16=aaa 17
TTITLE17=aaa 18
TTITLE18=aaa 19
TTITLE19=aaa 20
TTITLE20=aaa 21
TTITLE21=aaa 22
TTITLE22=aaa 23
EXTD=
EXTT0=
EXTT1=
EXTT2=
EXTT3=
EXTT4=
EXTT5=
EXTT6=
EXTT7=
EXTT8=
EXTT9=
EXTT10=
EXTT11=
EXTT12=
EXTT13=
EXTT14=
EXTT15=
EXTT16=
EXTT17=
EXTT18=
EXTT19=
EXTT20=
EXTT21=
EXTT22=
PLAYORDER=
